<svg width="16" height="16" viewBox="0 0 16 16" fill="none" xmlns="http://www.w3.org/2000/svg">
<path d="M8.67497 5C8.67497 4.62721 8.37277 4.325 7.99997 4.325C7.62718 4.325 7.32497 4.62721 7.32497 5V7.325H4.99997C4.62718 7.325 4.32497 7.62721 4.32497 8C4.32497 8.3728 4.62718 8.675 4.99997 8.675H7.32497V11C7.32497 11.3728 7.62718 11.675 7.99997 11.675C8.37277 11.675 8.67497 11.3728 8.67497 11V8.675H11C11.3728 8.675 11.675 8.3728 11.675 8C11.675 7.62721 11.3728 7.325 11 7.325H8.67497V5Z" fill="currentColor" fill-opacity="0.88"/>
<path fill-rule="evenodd" clip-rule="evenodd" d="M5.19692 0.951172C4.59089 0.951165 4.09524 0.951158 3.69243 0.984069C3.2755 1.01813 2.89894 1.0908 2.54727 1.26998C1.9969 1.55041 1.54943 1.99788 1.269 2.54825C1.08982 2.89992 1.01716 3.27648 0.983092 3.69341C0.950182 4.09621 0.950188 4.59185 0.950196 5.19788V10.8044C0.950188 11.4105 0.950182 11.9061 0.983092 12.3089C1.01716 12.7259 1.08982 13.1024 1.269 13.4541C1.54943 14.0045 1.9969 14.4519 2.54727 14.7324C2.89894 14.9116 3.2755 14.9842 3.69243 15.0183C4.09524 15.0512 4.59088 15.0512 5.19692 15.0512H10.8035C11.4095 15.0512 11.9052 15.0512 12.308 15.0183C12.7249 14.9842 13.1015 14.9116 13.4531 14.7324C14.0035 14.4519 14.451 14.0045 14.7314 13.4541C14.9106 13.1024 14.9832 12.7259 15.0173 12.3089C15.0502 11.9061 15.0502 11.4105 15.0502 10.8045V5.19789C15.0502 4.59186 15.0502 4.09622 15.0173 3.69341C14.9832 3.27648 14.9106 2.89992 14.7314 2.54825C14.451 1.99788 14.0035 1.55041 13.4531 1.26998C13.1015 1.0908 12.7249 1.01813 12.308 0.984069C11.9052 0.951158 11.4095 0.951165 10.8035 0.951172H5.19692ZM3.16016 2.47284C3.2898 2.40678 3.46892 2.35683 3.80237 2.32959C4.1437 2.3017 4.584 2.30117 5.2252 2.30117H10.7752C11.4164 2.30117 11.8567 2.3017 12.198 2.32959C12.5315 2.35683 12.7106 2.40678 12.8402 2.47284C13.1366 2.62384 13.3775 2.86478 13.5285 3.16114C13.5946 3.29077 13.6445 3.46989 13.6718 3.80334C13.6997 4.14467 13.7002 4.58498 13.7002 5.22617V10.7762C13.7002 11.4174 13.6997 11.8577 13.6718 12.199C13.6445 12.5325 13.5946 12.7116 13.5285 12.8412C13.3775 13.1376 13.1366 13.3785 12.8402 13.5295C12.7106 13.5956 12.5315 13.6455 12.198 13.6728C11.8567 13.7006 11.4164 13.7012 10.7752 13.7012H5.2252C4.584 13.7012 4.1437 13.7006 3.80237 13.6728C3.46892 13.6455 3.2898 13.5956 3.16016 13.5295C2.86381 13.3785 2.62286 13.1376 2.47186 12.8412C2.40581 12.7116 2.35585 12.5325 2.32861 12.199C2.30072 11.8577 2.3002 11.4174 2.3002 10.7762V5.22617C2.3002 4.58498 2.30072 4.14467 2.32861 3.80334C2.35585 3.46989 2.40581 3.29077 2.47186 3.16114C2.62286 2.86478 2.86381 2.62384 3.16016 2.47284Z" fill="currentColor" fill-opacity="0.88"/>
</svg>
