<svg width="20" height="20" viewBox="0 0 20 20" fill="none" xmlns="http://www.w3.org/2000/svg">
<path d="M14.6458 7.87604C14.9915 7.51888 14.9822 6.94911 14.6251 6.60341C14.2679 6.25772 13.6981 6.26701 13.3524 6.62416L8.67647 11.4551L6.64666 9.35231C6.30145 8.99469 5.73169 8.98462 5.37407 9.32983C5.01644 9.67504 5.00638 10.2448 5.35159 10.6024L8.02806 13.3752C8.19751 13.5507 8.43099 13.6499 8.67498 13.6501C8.91898 13.6503 9.15258 13.5514 9.32228 13.376L14.6458 7.87604Z" fill="currentColor"/>
<path fill-rule="evenodd" clip-rule="evenodd" d="M6.26191 0.600098C5.45387 0.600088 4.793 0.60008 4.25593 0.64396C3.70001 0.68938 3.19794 0.786263 2.72905 1.02517C1.99522 1.39908 1.39859 1.9957 1.02468 2.72954C0.785774 3.19842 0.688892 3.7005 0.643472 4.25642C0.599591 4.79349 0.5996 5.45433 0.59961 6.26237V13.7378C0.5996 14.5458 0.599591 15.2067 0.643472 15.7438C0.688892 16.2997 0.785774 16.8018 1.02468 17.2707C1.39859 18.0045 1.99522 18.6011 2.72905 18.975C3.19794 19.2139 3.70001 19.3108 4.25593 19.3562C4.793 19.4001 5.45385 19.4001 6.26191 19.4001H13.7373C14.5454 19.4001 15.2062 19.4001 15.7433 19.3562C16.2992 19.3108 16.8013 19.2139 17.2702 18.975C18.004 18.6011 18.6006 18.0045 18.9745 17.2707C19.2134 16.8018 19.3103 16.2997 19.3557 15.7438C19.3996 15.2067 19.3996 14.5459 19.3996 13.7378V6.26239C19.3996 5.45434 19.3996 4.79349 19.3557 4.25642C19.3103 3.7005 19.2134 3.19842 18.9745 2.72954C18.6006 1.9957 18.004 1.39908 17.2702 1.02517C16.8013 0.786263 16.2992 0.68938 15.7433 0.64396C15.2062 0.60008 14.5454 0.600088 13.7373 0.600098H6.26191ZM3.54623 2.62898C3.71908 2.54092 3.95791 2.47431 4.4025 2.43798C4.85761 2.4008 5.44468 2.4001 6.29961 2.4001H13.6996C14.5545 2.4001 15.1416 2.4008 15.5967 2.43798C16.0413 2.47431 16.2801 2.54092 16.453 2.62898C16.8481 2.83032 17.1694 3.15158 17.3707 3.54672C17.4588 3.71957 17.5254 3.95839 17.5617 4.40299C17.5989 4.8581 17.5996 5.44517 17.5996 6.3001V13.7001C17.5996 14.555 17.5989 15.1421 17.5617 15.5972C17.5254 16.0418 17.4588 16.2806 17.3707 16.4535C17.1694 16.8486 16.8481 17.1699 16.453 17.3712C16.2801 17.4593 16.0413 17.5259 15.5967 17.5622C15.1416 17.5994 14.5545 17.6001 13.6996 17.6001H6.29961C5.44468 17.6001 4.85761 17.5994 4.4025 17.5622C3.95791 17.5259 3.71908 17.4593 3.54623 17.3712C3.15109 17.1699 2.82983 16.8486 2.6285 16.4535C2.54043 16.2806 2.47382 16.0418 2.43749 15.5972C2.40031 15.1421 2.39961 14.555 2.39961 13.7001V6.3001C2.39961 5.44517 2.40031 4.8581 2.43749 4.40299C2.47382 3.95839 2.54043 3.71957 2.6285 3.54672C2.82983 3.15158 3.15109 2.83032 3.54623 2.62898Z" fill="currentColor"/>
</svg>
