<svg width="14" height="16" viewBox="0 0 14 16" fill="none" xmlns="http://www.w3.org/2000/svg">
<path d="M5.50019 6.9505C5.87298 6.9505 6.17518 7.25271 6.17518 7.6255V11.3755C6.17518 11.7483 5.87298 12.0505 5.50019 12.0505C5.12739 12.0505 4.82519 11.7483 4.82519 11.3755V7.6255C4.82519 7.25271 5.12739 6.9505 5.50019 6.9505Z" fill="currentColor" fill-opacity="0.88"/>
<path d="M8.50018 6.9505C8.87297 6.9505 9.17517 7.25271 9.17517 7.6255V11.3755C9.17517 11.7483 8.87297 12.0505 8.50018 12.0505C8.12739 12.0505 7.82518 11.7483 7.82518 11.3755V7.6255C7.82518 7.25271 8.12739 6.9505 8.50018 6.9505Z" fill="currentColor" fill-opacity="0.88"/>
<path fill-rule="evenodd" clip-rule="evenodd" d="M13.0001 3.3883H10.3001C10.3 3.01277 10.2991 2.69138 10.2774 2.42546C10.2535 2.13359 10.2013 1.84965 10.063 1.5782C9.85448 1.16895 9.52175 0.836213 9.11249 0.627689C8.84105 0.489378 8.5571 0.437152 8.26523 0.413306C7.98743 0.390608 7.64907 0.390616 7.2517 0.390625H6.74852C6.35115 0.390616 6.01272 0.390608 5.73491 0.413306C5.44304 0.437152 5.1591 0.489378 4.88765 0.627689C4.4784 0.836213 4.14566 1.16895 3.93714 1.5782C3.79883 1.84965 3.7466 2.13359 3.72276 2.42546C3.70103 2.69138 3.70011 3.01277 3.70008 3.3883H1.00019C0.627402 3.3883 0.325195 3.6905 0.325195 4.0633C0.325195 4.43609 0.627402 4.7383 1.00019 4.7383H1.45012L1.45012 12.5656C1.45011 12.963 1.4501 13.3014 1.4728 13.5792C1.49664 13.8711 1.54887 14.155 1.68718 14.4265C1.8957 14.8357 2.22843 15.1684 2.63769 15.377C2.90913 15.5153 3.19308 15.5675 3.48495 15.5913C3.76275 15.614 4.10111 15.614 4.49847 15.614H9.50165C9.89901 15.614 10.2375 15.614 10.5153 15.5913C10.8071 15.5675 11.0911 15.5153 11.3625 15.377C11.7718 15.1684 12.1045 14.8357 12.313 14.4265C12.4513 14.155 12.5036 13.8711 12.5274 13.5792C12.5501 13.3014 12.5501 12.963 12.5501 12.5656V4.7383H13.0001C13.3729 4.7383 13.6751 4.43609 13.6751 4.0633C13.6751 3.6905 13.3729 3.3883 13.0001 3.3883ZM8.95033 3.3883H5.05034V3.15879C5.05034 2.54786 5.05867 2.40249 5.09072 2.30385C5.17232 2.05269 5.36924 1.85577 5.6204 1.77416C5.71904 1.74211 5.86441 1.73379 6.47533 1.73379H7.52533C8.13625 1.73379 8.28163 1.74211 8.38027 1.77416C8.63143 1.85577 8.82834 2.05269 8.90995 2.30385C8.942 2.40249 8.95033 2.54786 8.95033 3.15879V3.3883ZM2.80036 12.8342V4.7383H11.2003V12.8342C11.2003 13.4451 11.192 13.5905 11.16 13.6892C11.0784 13.9403 10.8814 14.1372 10.6303 14.2188C10.5316 14.2509 10.3863 14.2592 9.77534 14.2592H4.22536C3.61444 14.2592 3.46906 14.2509 3.37042 14.2188C3.11926 14.1372 2.92235 13.9403 2.84074 13.6892C2.80869 13.5905 2.80036 13.4451 2.80036 12.8342Z" fill="currentColor" fill-opacity="0.88"/>
</svg>
