<svg width="14" height="16" viewBox="0 0 14 16" fill="none" xmlns="http://www.w3.org/2000/svg">
<path d="M3.88788 9.12483C3.88788 8.75204 4.19008 8.44983 4.56288 8.44983H7.56286C7.93566 8.44983 8.23786 8.75204 8.23786 9.12483C8.23786 9.49762 7.93566 9.79983 7.56286 9.79983H4.56288C4.19008 9.79983 3.88788 9.49762 3.88788 9.12483Z" fill="currentColor" fill-opacity="0.88"/>
<path d="M3.88788 11.7502C3.88788 11.3774 4.19008 11.0752 4.56288 11.0752H7.56286C7.93566 11.0752 8.23786 11.3774 8.23786 11.7502C8.23786 12.123 7.93566 12.4252 7.56286 12.4252H4.56288C4.19008 12.4252 3.88788 12.123 3.88788 11.7502Z" fill="currentColor" fill-opacity="0.88"/>
<path fill-rule="evenodd" clip-rule="evenodd" d="M7.95963 0.614683C7.79239 0.574536 7.62212 0.574926 7.47823 0.575256L7.4406 0.575314H3.93613C3.53873 0.575303 3.20035 0.575294 2.92253 0.597993C2.63066 0.62184 2.34671 0.674064 2.07526 0.812375C1.66601 1.0209 1.33328 1.35363 1.12476 1.76288C0.986448 2.03433 0.934222 2.31828 0.910376 2.61015C0.887678 2.88796 0.887686 3.22633 0.887696 3.6237V12.3769C0.887686 12.7742 0.887678 13.1127 0.910376 13.3905C0.934222 13.6823 0.986448 13.9663 1.12476 14.2377C1.33328 14.647 1.66601 14.9797 2.07526 15.1883C2.34671 15.3266 2.63066 15.3788 2.92253 15.4026C3.20034 15.4253 3.53871 15.4253 3.93609 15.4253H10.0642C10.4616 15.4253 10.8 15.4253 11.0778 15.4026C11.3697 15.3788 11.6536 15.3266 11.9251 15.1883C12.3343 14.9797 12.6671 14.647 12.8756 14.2377C13.0139 13.9663 13.0661 13.6823 13.09 13.3905C13.1127 13.1127 13.1127 12.7743 13.1126 12.3769V6.24704L13.1127 6.2094C13.113 6.06549 13.1134 5.89519 13.0733 5.72795C13.0384 5.58254 12.9808 5.44353 12.9026 5.31603C12.8128 5.16938 12.6921 5.04924 12.5901 4.94772L12.5634 4.92115L8.76636 1.12443L8.73979 1.09778C8.63828 0.995805 8.51815 0.875134 8.37151 0.785278C8.24401 0.707156 8.10502 0.649586 7.95963 0.614683ZM7.45044 1.92549C7.44721 1.92549 7.44393 1.92549 7.44059 1.92549H3.96267C3.5315 1.92549 3.24871 1.92602 3.03244 1.94369C2.82406 1.96071 2.73755 1.99023 2.68813 2.01541C2.5329 2.09451 2.40669 2.22072 2.3276 2.37595C2.30242 2.42537 2.2729 2.51188 2.25587 2.72026C2.2382 2.93653 2.23768 3.21931 2.23768 3.65049V12.3505C2.23768 12.7817 2.2382 13.0645 2.25587 13.2807C2.2729 13.4891 2.30242 13.5756 2.3276 13.625C2.40669 13.7803 2.5329 13.9065 2.68813 13.9856C2.73755 14.0108 2.82406 14.0403 3.03244 14.0573C3.24871 14.075 3.5315 14.0755 3.96267 14.0755H10.0376C10.4688 14.0755 10.7516 14.075 10.9679 14.0573C11.1763 14.0403 11.2628 14.0108 11.3122 13.9856C11.4674 13.9065 11.5936 13.7803 11.6727 13.625C11.6979 13.5756 11.7274 13.4891 11.7444 13.2807C11.7621 13.0645 11.7626 12.7817 11.7626 12.3505V6.42527L9.30312 6.42528C9.11238 6.42529 8.93084 6.42531 8.77787 6.41281C8.61107 6.39919 8.41974 6.3674 8.22851 6.26996C7.96037 6.13334 7.74238 5.91534 7.60576 5.64721C7.50832 5.45598 7.47653 5.26465 7.4629 5.09784C7.45041 4.94488 7.45042 4.76336 7.45044 4.57263L7.45044 1.92549ZM10.8081 5.07527L8.80045 3.06781V5.00027C8.80045 5.04169 8.83403 5.07527 8.87545 5.07527H10.8081Z" fill="currentColor" fill-opacity="0.88"/>
</svg>
