<svg width="16" height="16" viewBox="0 0 16 16" fill="none" xmlns="http://www.w3.org/2000/svg">
<path fill-rule="evenodd" clip-rule="evenodd" d="M10.6778 8.82434H13.1975C13.3882 8.82432 13.5698 8.82431 13.7227 8.8368C13.8895 8.85043 14.0809 8.88222 14.2721 8.97966C14.5402 9.11628 14.7582 9.33428 14.8948 9.60241C14.9923 9.79364 15.0241 9.98497 15.0377 10.1518C15.0502 10.3047 15.0502 10.4863 15.0502 10.677V13.1967C15.0502 13.3874 15.0502 13.5689 15.0377 13.7219C15.0241 13.8887 14.9923 14.08 14.8948 14.2713C14.7582 14.5394 14.5402 14.7574 14.2721 14.894C14.0809 14.9915 13.8895 15.0233 13.7227 15.0369C13.5698 15.0494 13.3882 15.0494 13.1975 15.0493H10.6778C10.4871 15.0494 10.3056 15.0494 10.1526 15.0369C9.9858 15.0233 9.79447 14.9915 9.60324 14.894C9.33511 14.7574 9.11711 14.5394 8.98049 14.2713C8.88305 14.08 8.85126 13.8887 8.83763 13.7219C8.82514 13.5689 8.82515 13.3874 8.82517 13.1967V10.677C8.82515 10.4863 8.82514 10.3048 8.83763 10.1518C8.85126 9.98497 8.88305 9.79364 8.98049 9.60241C9.11711 9.33428 9.33511 9.11628 9.60324 8.97966C9.79447 8.88222 9.9858 8.85043 10.1526 8.8368C10.3056 8.82431 10.4871 8.82432 10.6778 8.82434ZM10.2502 10.175C10.2088 10.175 10.1752 10.2086 10.1752 10.25V13.625C10.1752 13.6664 10.2088 13.7 10.2502 13.7H13.6252C13.6666 13.7 13.7002 13.6664 13.7002 13.625V10.25C13.7002 10.2086 13.6666 10.175 13.6252 10.175H10.2502Z" fill="currentColor" fill-opacity="0.88"/>
<path fill-rule="evenodd" clip-rule="evenodd" d="M2.80287 8.82434H5.3225C5.51325 8.82432 5.69478 8.82431 5.84775 8.8368C6.01455 8.85043 6.20589 8.88222 6.39712 8.97966C6.66525 9.11628 6.88324 9.33428 7.01986 9.60241C7.1173 9.79364 7.14909 9.98497 7.16272 10.1518C7.17522 10.3047 7.1752 10.4863 7.17518 10.677V13.1967C7.1752 13.3874 7.17522 13.5689 7.16272 13.7219C7.14909 13.8887 7.1173 14.08 7.01986 14.2713C6.88324 14.5394 6.66525 14.7574 6.39712 14.894C6.20589 14.9915 6.01455 15.0233 5.84775 15.0369C5.69478 15.0494 5.51326 15.0494 5.32252 15.0493H2.80287C2.61214 15.0494 2.43059 15.0494 2.27763 15.0369C2.11082 15.0233 1.91949 14.9915 1.72826 14.894C1.46013 14.7574 1.24213 14.5394 1.10551 14.2713C1.00808 14.08 0.976287 13.8887 0.962658 13.7219C0.95016 13.5689 0.950178 13.3874 0.950197 13.1967V10.677C0.950178 10.4863 0.95016 10.3048 0.962658 10.1518C0.976287 9.98497 1.00808 9.79364 1.10551 9.60241C1.24213 9.33428 1.46013 9.11628 1.72826 8.97966C1.91949 8.88222 2.11082 8.85043 2.27763 8.8368C2.4306 8.82431 2.61213 8.82432 2.80287 8.82434ZM2.37524 10.175C2.33381 10.175 2.30024 10.2086 2.30024 10.25V13.625C2.30024 13.6664 2.33381 13.7 2.37524 13.7H5.75023C5.79165 13.7 5.82523 13.6664 5.82523 13.625V10.25C5.82523 10.2086 5.79165 10.175 5.75023 10.175H2.37524Z" fill="currentColor" fill-opacity="0.88"/>
<path fill-rule="evenodd" clip-rule="evenodd" d="M10.6778 0.949342H13.1975C13.3882 0.949323 13.5698 0.949305 13.7227 0.961804C13.8895 0.975432 14.0809 1.00722 14.2721 1.10466C14.5402 1.24128 14.7582 1.45928 14.8948 1.72741C14.9923 1.91864 15.0241 2.10997 15.0377 2.27678C15.0502 2.42975 15.0502 2.61127 15.0502 2.80201V5.32166C15.0502 5.5124 15.0502 5.69394 15.0377 5.84691C15.0241 6.01372 14.9923 6.20505 14.8948 6.39628C14.7582 6.66441 14.5402 6.88241 14.2721 7.01903C14.0809 7.11647 13.8895 7.14826 13.7227 7.16188C13.5698 7.17438 13.3882 7.17436 13.1975 7.17435H10.6778C10.4871 7.17436 10.3056 7.17438 10.1526 7.16188C9.9858 7.14826 9.79447 7.11647 9.60324 7.01903C9.33511 6.88241 9.11711 6.66441 8.98049 6.39628C8.88305 6.20505 8.85126 6.01372 8.83763 5.84691C8.82514 5.69394 8.82515 5.5124 8.82517 5.32166V2.80202C8.82515 2.61128 8.82514 2.42975 8.83763 2.27678C8.85126 2.10997 8.88305 1.91864 8.98049 1.72741C9.11711 1.45928 9.33511 1.24128 9.60324 1.10466C9.79447 1.00722 9.9858 0.975432 10.1526 0.961804C10.3056 0.949305 10.4871 0.949323 10.6778 0.949342ZM10.2502 2.3C10.2088 2.3 10.1752 2.33357 10.1752 2.375V5.75C10.1752 5.79142 10.2088 5.825 10.2502 5.825H13.6252C13.6666 5.825 13.7002 5.79142 13.7002 5.75V2.375C13.7002 2.33357 13.6666 2.3 13.6252 2.3H10.2502Z" fill="currentColor" fill-opacity="0.88"/>
<path fill-rule="evenodd" clip-rule="evenodd" d="M2.80287 0.949342H5.3225C5.51325 0.949323 5.69478 0.949305 5.84775 0.961804C6.01455 0.975432 6.20589 1.00722 6.39712 1.10466C6.66525 1.24128 6.88324 1.45928 7.01986 1.72741C7.1173 1.91864 7.14909 2.10997 7.16272 2.27678C7.17522 2.42975 7.1752 2.61127 7.17518 2.80201V5.32166C7.1752 5.5124 7.17522 5.69394 7.16272 5.84691C7.14909 6.01372 7.1173 6.20505 7.01986 6.39628C6.88324 6.66441 6.66525 6.88241 6.39712 7.01903C6.20589 7.11647 6.01455 7.14826 5.84775 7.16188C5.69478 7.17438 5.51326 7.17436 5.32252 7.17435H2.80287C2.61214 7.17436 2.43059 7.17438 2.27763 7.16188C2.11082 7.14826 1.91949 7.11647 1.72826 7.01903C1.46013 6.88241 1.24213 6.66441 1.10551 6.39628C1.00808 6.20505 0.976287 6.01372 0.962658 5.84691C0.95016 5.69394 0.950178 5.5124 0.950197 5.32166V2.80202C0.950178 2.61128 0.95016 2.42975 0.962658 2.27678C0.976287 2.10997 1.00808 1.91864 1.10551 1.72741C1.24213 1.45928 1.46013 1.24128 1.72826 1.10466C1.91949 1.00722 2.11082 0.975432 2.27763 0.961804C2.4306 0.949305 2.61213 0.949323 2.80287 0.949342ZM2.37524 2.3C2.33381 2.3 2.30024 2.33357 2.30024 2.375V5.75C2.30024 5.79142 2.33381 5.825 2.37524 5.825H5.75023C5.79165 5.825 5.82523 5.79142 5.82523 5.75V2.375C5.82523 2.33357 5.79165 2.3 5.75023 2.3H2.37524Z" fill="currentColor" fill-opacity="0.88"/>
</svg>
