<svg width="16" height="14" viewBox="0 0 16 14" fill="none" xmlns="http://www.w3.org/2000/svg">
<path d="M15.3333 0H0.666664C0.298476 0 0 0.365634 0 0.816667V1.63333C0 2.08437 0.298476 2.45 0.666664 2.45H15.3333C15.7015 2.45 15.9999 2.08437 15.9999 1.63333V0.816667C15.9999 0.365634 15.7015 0 15.3333 0Z" fill="currentColor" fill-opacity="0.28"/>
<path d="M15.3333 5.775H0.666664C0.298476 5.775 0 6.14063 0 6.59167V7.40833C0 7.85937 0.298476 8.225 0.666664 8.225H15.3333C15.7015 8.225 15.9999 7.85937 15.9999 7.40833V6.59167C15.9999 6.14063 15.7015 5.775 15.3333 5.775Z" fill="currentColor" fill-opacity="0.28"/>
<path d="M0.666664 11.55H15.3333C15.7015 11.55 15.9999 11.9156 15.9999 12.3667V13.1833C15.9999 13.6344 15.7015 14 15.3333 14H0.666664C0.298476 14 0 13.6344 0 13.1833V12.3667C0 11.9156 0.298476 11.55 0.666664 11.55Z" fill="currentColor" fill-opacity="0.28"/>
</svg>
