<svg width="12" height="18" viewBox="0 0 12 18" fill="none" xmlns="http://www.w3.org/2000/svg">
<path d="M4.37499 2.25C4.37499 1.2835 3.59149 0.5 2.62499 0.5C1.6585 0.5 0.875 1.2835 0.875 2.25C0.875 3.2165 1.6585 4 2.62499 4C3.59149 4 4.37499 3.2165 4.37499 2.25Z" fill="currentColor"/>
<path d="M9.37497 14C10.3415 14 11.125 14.7835 11.125 15.75C11.125 16.7165 10.3415 17.5 9.37497 17.5C8.40847 17.5 7.62497 16.7165 7.62497 15.75C7.62497 14.7835 8.40847 14 9.37497 14Z" fill="currentColor"/>
<path d="M11.125 9C11.125 8.0335 10.3415 7.25 9.37497 7.25C8.40847 7.25 7.62497 8.0335 7.62497 9C7.62497 9.9665 8.40847 10.75 9.37497 10.75C10.3415 10.75 11.125 9.9665 11.125 9Z" fill="currentColor"/>
<path d="M11.125 2.25C11.125 1.2835 10.3415 0.5 9.37497 0.5C8.40847 0.5 7.62497 1.2835 7.62497 2.25C7.62497 3.2165 8.40847 4 9.37497 4C10.3415 4 11.125 3.2165 11.125 2.25Z" fill="currentColor"/>
<path d="M2.62499 7.25C3.59149 7.25 4.37499 8.0335 4.37499 9C4.37499 9.9665 3.59149 10.75 2.62499 10.75C1.6585 10.75 0.875 9.9665 0.875 9C0.875 8.0335 1.6585 7.25 2.62499 7.25Z" fill="currentColor"/>
<path d="M4.37499 15.75C4.37499 14.7835 3.59149 14 2.62499 14C1.6585 14 0.875 14.7835 0.875 15.75C0.875 16.7165 1.6585 17.5 2.62499 17.5C3.59149 17.5 4.37499 16.7165 4.37499 15.75Z" fill="currentColor"/>
</svg>
