<svg width="18" height="17" viewBox="0 0 18 17" fill="none" xmlns="http://www.w3.org/2000/svg">
<path fill-rule="evenodd" clip-rule="evenodd" d="M4.13715 0.166504C3.69563 0.166494 3.3196 0.166484 3.01092 0.191704C2.68662 0.218201 2.37113 0.276229 2.06952 0.429907C1.6148 0.661601 1.2451 1.0313 1.0134 1.48603C0.859725 1.78764 0.801697 2.10313 0.775201 2.42744C0.749981 2.73611 0.74999 3.11206 0.75 3.55358V9.94601C0.74999 10.3875 0.749981 10.7636 0.775201 11.0722C0.801697 11.3965 0.859725 11.712 1.0134 12.0137C1.2451 12.4684 1.6148 12.8381 2.06952 13.0698C2.37113 13.2235 2.68662 13.2815 3.01092 13.308C3.31962 13.3332 3.6956 13.3332 4.13715 13.3332H10.5295C10.971 13.3332 11.347 13.3332 11.6557 13.308C11.98 13.2815 12.2955 13.2235 12.5971 13.0698C13.0518 12.8381 13.4215 12.4684 13.6532 12.0137C13.8069 11.712 13.8649 11.3965 13.8914 11.0722C13.9166 10.7636 13.9166 10.3876 13.9166 9.94601V3.55367C13.9166 3.11211 13.9166 2.73613 13.8914 2.42744C13.8649 2.10313 13.8069 1.78764 13.6532 1.48603C13.4215 1.0313 13.0518 0.661601 12.5971 0.429907C12.2955 0.276229 11.98 0.218201 11.6557 0.191704C11.347 0.166484 10.9711 0.166494 10.5295 0.166504H4.13715ZM2.88333 1.71169C2.99294 1.67608 3.15446 1.66683 3.83326 1.66683H10.8332C11.512 1.66683 11.6736 1.67608 11.7832 1.71169C12.0622 1.80237 12.281 2.02116 12.3717 2.30023C12.4073 2.40983 12.4166 2.57136 12.4166 3.25016V10.2502C12.4166 10.929 12.4073 11.0905 12.3717 11.2001C12.281 11.4792 12.0622 11.698 11.7832 11.7886C11.6736 11.8242 11.512 11.8335 10.8332 11.8335H3.83326C3.15446 11.8335 2.99294 11.8242 2.88333 11.7886C2.60427 11.698 2.38547 11.4792 2.2948 11.2001C2.25919 11.0905 2.24994 10.929 2.24994 10.2502V3.25016C2.24994 2.57136 2.25919 2.40983 2.2948 2.30023C2.38547 2.02116 2.60427 1.80237 2.88333 1.71169Z" fill="currentColor" fill-opacity="0.61"/>
<path d="M17.2501 5.83328C17.2501 5.41896 16.9142 5.08309 16.4999 5.08309C16.0856 5.08309 15.7497 5.41896 15.7497 5.83328V13.5843C15.7497 14.2631 15.7405 14.4246 15.7049 14.5342C15.6142 14.8133 15.3954 15.0321 15.1163 15.1228C15.0067 15.1584 14.8452 15.1676 14.1664 15.1676H6.41565C6.00189 15.1676 5.66647 15.5031 5.66647 15.9168C5.66647 16.3306 6.00189 16.666 6.41565 16.666H13.863C14.3045 16.666 14.6805 16.666 14.9892 16.6408C15.3135 16.6143 15.629 16.5563 15.9306 16.4026C16.3853 16.1709 16.755 15.8012 16.9867 15.3465C17.1404 15.0449 17.1984 14.7294 17.2249 14.4051C17.2501 14.0964 17.2501 13.7204 17.2501 13.2789V5.83328Z" fill="currentColor" fill-opacity="0.61"/>
</svg>
