<svg width="14" height="14" viewBox="0 0 14 14" fill="none" xmlns="http://www.w3.org/2000/svg">
<path fill-rule="evenodd" clip-rule="evenodd" d="M9.99161 0.866203C10.8593 -0.00146253 12.266 -0.00146222 13.1337 0.866204C14.0014 1.73387 14.0014 3.14063 13.1337 4.0083L3.66498 13.477C3.53839 13.6036 3.36671 13.6747 3.18768 13.6747H1.00019C0.627402 13.6747 0.325195 13.3725 0.325195 12.9997V10.8123C0.325195 10.6332 0.396311 10.4615 0.522897 10.335L9.99161 0.866203ZM12.1791 1.8208C11.8386 1.48034 11.2867 1.48034 10.9462 1.8208L1.67519 11.0918V12.3247H2.90809L12.1791 3.0537C12.5196 2.71324 12.5196 2.16125 12.1791 1.8208Z" fill="currentColor" fill-opacity="0.88"/>
</svg>
