<svg width="20" height="20" viewBox="0 0 20 20" fill="none" xmlns="http://www.w3.org/2000/svg">
<path fill-rule="evenodd" clip-rule="evenodd" d="M14.0083 19.7962C11.8244 19.3537 8.49067 18.131 5.18174 14.822C1.87282 11.5131 0.650049 8.1794 0.207626 5.99541C-0.159614 4.18255 0.662052 2.5126 1.82612 1.34854L2.09812 1.07653C3.36527 -0.190619 5.46695 -0.0166787 6.50854 1.44155L7.93324 3.43614C8.61515 4.39082 8.50692 5.69858 7.67733 6.52816L6.84823 7.35727C7.10008 7.96327 7.74436 9.18223 9.28295 10.7208C10.8215 12.2594 12.0405 12.9037 12.6465 13.1555L13.4756 12.3264C14.3052 11.4969 15.6129 11.3886 16.5676 12.0705L18.5622 13.4952C20.0204 14.5368 20.1944 16.6385 18.9272 17.9057L18.6552 18.1777C17.4911 19.3417 15.8212 20.1634 14.0083 19.7962ZM6.45453 13.5492C9.47683 16.5716 12.4744 17.6489 14.3657 18.032C15.4017 18.2419 16.4912 17.7962 17.3824 16.9049L17.6544 16.6329C18.1351 16.1522 18.0691 15.355 17.516 14.96L15.5214 13.5353C15.2827 13.3648 14.9558 13.3918 14.7484 13.5992L13.904 14.4436C13.4618 14.8858 12.753 15.1359 12.0491 14.8557C11.2381 14.5329 9.77888 13.7623 8.01016 11.9936C6.24144 10.2249 5.47083 8.76562 5.14808 7.9547C4.86792 7.25078 5.11797 6.54196 5.56017 6.09975L6.40455 5.25537C6.61194 5.04797 6.639 4.72104 6.46852 4.48237L5.04382 2.48778C4.64874 1.93466 3.85155 1.86868 3.3709 2.34933L3.0989 2.62133C2.20764 3.51259 1.76193 4.60207 1.97179 5.63803C2.35493 7.5294 3.43224 10.5269 6.45453 13.5492Z" fill="currentColor"/>
</svg>
