<svg width="24" height="24" viewBox="0 0 24 24" fill="none" xmlns="http://www.w3.org/2000/svg">
<path d="M11.9996 3.10303C12.4966 3.10303 12.8996 3.50597 12.8996 4.00303V11.103H19.9995C20.4966 11.103 20.8995 11.506 20.8995 12.003C20.8995 12.5001 20.4966 12.903 19.9995 12.903H12.8996V20.003C12.8996 20.5001 12.4966 20.903 11.9996 20.903C11.5025 20.903 11.0996 20.5001 11.0996 20.003V12.903H3.99961C3.50255 12.903 3.09961 12.5001 3.09961 12.003C3.09961 11.506 3.50255 11.103 3.99961 11.103H11.0996V4.00303C11.0996 3.50597 11.5025 3.10303 11.9996 3.10303Z" fill="currentColor" fill-opacity="0.28"/>
</svg>
