<svg width="16" height="16" viewBox="0 0 16 16" fill="none" xmlns="http://www.w3.org/2000/svg">
<path fill-rule="evenodd" clip-rule="evenodd" d="M6.49968 0.575195C3.22741 0.575195 0.574707 3.22791 0.574707 6.5002C0.574707 9.77248 3.22741 12.4252 6.49968 12.4252C7.89266 12.4252 9.17335 11.9445 10.1849 11.1399L13.8975 14.8525C14.1611 15.1161 14.5885 15.1161 14.8521 14.8525C15.1157 14.5889 15.1157 14.1615 14.8521 13.8979L11.1395 10.1853C11.944 9.17375 12.4247 7.8931 12.4247 6.5002C12.4247 3.22791 9.77196 0.575195 6.49968 0.575195ZM1.9247 6.5002C1.9247 3.97349 3.97299 1.9252 6.49968 1.9252C9.02638 1.9252 11.0747 3.97349 11.0747 6.5002C11.0747 9.0269 9.02638 11.0752 6.49968 11.0752C3.97299 11.0752 1.9247 9.0269 1.9247 6.5002Z" fill="currentColor" fill-opacity="0.88"/>
</svg>
