<svg width="22" height="14" viewBox="0 0 22 14" fill="none" xmlns="http://www.w3.org/2000/svg">
<path fill-rule="evenodd" clip-rule="evenodd" d="M6.18688 0.498535C5.52157 0.498535 4.92513 0.908681 4.68702 1.52992L0.595393 12.205C0.35572 12.8303 0.817384 13.5017 1.48705 13.5017C1.88807 13.5017 2.24637 13.2511 2.38398 12.8744L3.44087 9.98149H8.92392L9.9798 12.8717C10.118 13.25 10.4779 13.5017 10.8806 13.5017C11.5532 13.5017 12.0169 12.8274 11.7762 12.1993L7.68674 1.52992C7.44863 0.908683 6.85219 0.498535 6.18688 0.498535ZM6.13432 2.60885H6.23046L8.2809 8.22139H4.08388L6.13432 2.60885Z" fill="currentColor"/>
<path fill-rule="evenodd" clip-rule="evenodd" d="M16.9809 7.79944L19.3327 7.6695C19.3042 6.26607 18.6364 5.59932 17.2952 5.59932C16.5801 5.59932 16.0381 5.78539 15.6166 6.19123C15.2833 6.51209 14.8049 6.70259 14.3821 6.5147C13.913 6.30619 13.7105 5.7337 14.0425 5.34214C14.8107 4.43642 15.8997 3.98291 17.2952 3.98291C19.7481 3.98291 21.1387 5.38423 21.1387 7.7725V12.5993C21.1387 13.0977 20.7346 13.5018 20.2362 13.5018C19.7378 13.5018 19.3337 13.0977 19.3337 12.5993V12.1009H19.2616C18.6312 13.1419 17.5122 13.7532 16.2984 13.7532C14.6437 13.7532 13.1375 12.5181 13.1375 10.8167C13.1375 8.75185 15.209 7.86555 16.9809 7.79944ZM19.3336 9.88264V9.01807L17.0258 9.17322C16.0693 9.22539 15.0052 9.66309 15.0052 10.7717C15.0052 11.6577 15.6817 12.1726 16.8551 12.1726C18.399 12.1726 19.3336 11.2439 19.3336 9.88264Z" fill="currentColor"/>
</svg>
